<svg id="Capa_1" enable-background="new 0 0 511 511" height="512" viewBox="0 0 511 511" width="512" xmlns="http://www.w3.org/2000/svg"><g><path d="m149.5 315c-17.921 0-32.5 14.579-32.5 32.5s14.579 32.5 32.5 32.5 32.5-14.579 32.5-32.5-14.579-32.5-32.5-32.5zm0 50c-9.649 0-17.5-7.851-17.5-17.5s7.851-17.5 17.5-17.5 17.5 7.851 17.5 17.5-7.851 17.5-17.5 17.5z"/><path d="m397.5 315c-17.921 0-32.5 14.579-32.5 32.5s14.579 32.5 32.5 32.5 32.5-14.579 32.5-32.5-14.579-32.5-32.5-32.5zm0 50c-9.649 0-17.5-7.851-17.5-17.5s7.851-17.5 17.5-17.5 17.5 7.851 17.5 17.5-7.851 17.5-17.5 17.5z"/><path d="m498 302v-69.036l-89.777-12.384-47.326-84.58h-75.897v-12.5c0-15.163-12.337-27.5-27.5-27.5h-160c-15.163 0-27.5 12.337-27.5 27.5v13.548c-11.528 3.274-20 13.889-20 26.452v7.5h-22.5c-15.163 0-27.5 12.337-27.5 27.5v60c0 15.163 12.337 27.5 27.5 27.5h22.5v16h-14v55h46.682c4.633 32.736 32.824 58 66.818 58 23.353 0 43.97-11.924 56.094-30h135.813c12.124 18.076 32.74 30 56.094 30 33.994 0 62.185-25.264 66.818-58h46.681v-55zm-448-31h-22.5c-6.893 0-12.5-5.607-12.5-12.5v-60c0-6.893 5.607-12.5 12.5-12.5h22.5zm185-160h22.5c6.893 0 12.5 5.607 12.5 12.5v12.5h-35zm-50 0h35v25h-35zm-50 0h35v25h-35zm-50 12.5c0-6.893 5.607-12.5 12.5-12.5h22.5v25h-35zm-2.757 218.5h-31.243v-25h38.314c-3.877 7.62-6.346 16.065-7.071 25zm67.257 58c-28.948 0-52.5-23.552-52.5-52.5s23.552-52.5 52.5-52.5 52.5 23.552 52.5 52.5-23.552 52.5-52.5 52.5zm63.63-30c2.498-7.042 3.87-14.612 3.87-22.5 0-.838-.033-1.669-.063-2.5h113.127c-.031.831-.063 1.662-.063 2.5 0 7.888 1.373 15.458 3.87 22.5zm125.231-55c-2.587 4.689-4.628 9.718-6.047 15h-117.628c-7.729-28.761-34.018-50-65.186-50-19.704 0-37.461 8.49-49.812 22h-34.688v-138.5c0-6.893 5.607-12.5 12.5-12.5h274.603l46.675 83.42 84.222 11.616v55.964h-35.688c-12.351-13.51-30.108-22-49.812-22-18.713 0-35.667 7.658-47.905 20h-56.095v15zm59.139 85c-28.948 0-52.5-23.552-52.5-52.5s23.552-52.5 52.5-52.5 52.5 23.552 52.5 52.5-23.552 52.5-52.5 52.5zm98.5-58h-31.243c-.725-8.935-3.194-17.38-7.071-25h38.314z"/><path d="m245 166h-165v85h165zm-15 70h-135v-55h135z"/><path d="m263.5 300h15v15h-15z"/><path d="m345.019 166h-85.019v85h129.947zm-70.019 15h60.981l29.071 55h-90.052z"/><path d="m111.5 205h15v15h-15z"/><path d="m141.5 205h15v15h-15z"/><path d="m233.5 300h15v15h-15z"/></g></svg>